<?xml version="1.0" encoding="UTF-8" standalone="no"?>
<svg
   version="1.1"
   width="16"
   height="16"
   id="svg2"
   sodipodi:docname="status-bar.svg"
   inkscape:version="1.2.2 (b0a8486541, 2022-12-01)"
   xmlns:inkscape="http://www.inkscape.org/namespaces/inkscape"
   xmlns:sodipodi="http://sodipodi.sourceforge.net/DTD/sodipodi-0.dtd"
   xmlns="http://www.w3.org/2000/svg"
   xmlns:svg="http://www.w3.org/2000/svg"
   xmlns:rdf="http://www.w3.org/1999/02/22-rdf-syntax-ns#"
   xmlns:cc="http://creativecommons.org/ns#"
   xmlns:dc="http://purl.org/dc/elements/1.1/">
  <sodipodi:namedview
     id="namedview722"
     pagecolor="#ffffff"
     bordercolor="#666666"
     borderopacity="1.0"
     inkscape:showpageshadow="2"
     inkscape:pageopacity="0.0"
     inkscape:pagecheckerboard="0"
     inkscape:deskcolor="#d1d1d1"
     showgrid="false"
     inkscape:zoom="35.195321"
     inkscape:cx="6.7338497"
     inkscape:cy="5.7251929"
     inkscape:window-width="1920"
     inkscape:window-height="1044"
     inkscape:window-x="0"
     inkscape:window-y="36"
     inkscape:window-maximized="1"
     inkscape:current-layer="svg2" />
  <metadata
     id="metadata4">
    <rdf:RDF>
      <cc:Work
         rdf:about="">
        <dc:format>image/svg+xml</dc:format>
        <dc:type
           rdf:resource="http://purl.org/dc/dcmitype/StillImage" />
      </cc:Work>
    </rdf:RDF>
  </metadata>
  <defs
     id="defs6" />
  <path
     d="m 8.1912361,0.48335345 c -4.1920037,0 -7.60275816,3.41075455 -7.60275816,7.60287705 0,4.1924775 3.41075446,7.6030545 7.60275816,7.6030545 4.1921229,0 7.6028769,-3.410577 7.6028769,-7.6030545 0,-4.1921225 -3.410754,-7.60287705 -7.6028769,-7.60287705"
     id="path8"
     style="fill:#ffffff;stroke-width:0.059397" />
  <path
     d="M 7.9131985,8.2229622 C 7.844892,8.3709795 7.7695172,8.5372914 7.6914695,8.7142944 7.4155704,9.3393886 7.1100321,10.100027 6.9984253,10.587319 c -0.040093,0.173559 -0.064921,0.388635 -0.064446,0.627113 0,0.09432 0.00505,0.193457 0.013069,0.294432 0.3900601,0.143325 0.811363,0.222145 1.2513167,0.222917 0.400514,-7.83e-4 0.7852877,-0.06694 1.145412,-0.186685 C 9.2591341,11.467705 9.1783542,11.385199 9.1048208,11.292242 8.616578,10.669644 8.3441833,9.7571872 7.9131985,8.2229622"
     id="path10"
     style="fill:#91dc47;stroke-width:0.059397" />
  <path
     d="M 6.1106182,5.1296848 C 5.1781444,5.7868533 4.5679588,6.8707299 4.5656424,8.0990603 4.5679652,9.3090365 5.1597908,10.378896 6.0688025,11.038796 6.2917788,10.110005 6.8507047,9.2595591 7.688856,7.5548647 7.6390815,7.4181327 7.5823571,7.2684521 7.5188617,7.1112284 7.2866789,6.5287814 6.951561,5.8523683 6.652497,5.5460578 6.5000248,5.3860423 6.3150032,5.2477659 6.1106182,5.1296848"
     id="path12"
     style="fill:#91dc47;stroke-width:0.059397" />
  <path
     d="m 11.36274,12.26576 c -0.481117,-0.06029 -0.878186,-0.133049 -1.225539,-0.255585 -0.5842292,0.290095 -1.2421699,0.453971 -1.9388373,0.453971 -2.4105683,0 -4.3646708,-1.953805 -4.3649678,-4.3650857 0,-1.3083382 0.5763888,-2.4811915 1.4882517,-3.2810912 -0.2438842,-0.058922 -0.4982222,-0.093312 -0.7580245,-0.092838 -1.2807186,0.012058 -2.632654,0.7208421 -3.1955,2.6350294 -0.052626,0.2786314 -0.040093,0.4893126 -0.040093,0.7390178 0,3.7945773 3.0762306,6.8708083 6.8705118,6.8708083 2.3237301,0 4.3764911,-1.154618 5.6196111,-2.920492 -0.672375,0.167559 -1.31897,0.247686 -1.87267,0.249409 -0.207532,0 -0.402354,-0.01111 -0.582743,-0.03314"
     id="path14"
     style="fill:#63b132;stroke-width:0.059397" />
  <path
     d="m 10.071686,10.934436 c 0.04241,0.02103 0.138573,0.05536 0.272394,0.09332 0.900282,-0.660911 1.485341,-1.7254831 1.487658,-2.9286881 h -3.49e-4 c -0.0034,-2.0059041 -1.626654,-3.6289277 -3.6330253,-3.6329073 -0.3987916,7.84e-4 -0.7819023,0.066584 -1.1406008,0.1854375 0.7376514,0.840824 1.0923703,2.0424258 1.4355069,3.3568222 1.782e-4,5.807e-4 4.646e-4,0.00107 5.807e-4,0.00154 6.678e-4,0.00107 0.1097656,0.3649947 0.2971039,0.847833 0.1860314,0.4821848 0.4510608,1.0791248 0.7400866,1.5141487 0.1897734,0.291521 0.3984947,0.501014 0.540632,0.562489"
     id="path16"
     style="fill:#90b4fe;stroke-width:0.059397" />
  <path
     d="m 8.1985419,1.2282514 c -2.3012778,0 -4.3369323,1.1328792 -5.5837943,2.8699448 0.6489123,-0.4063941 1.3114859,-0.5529863 1.8897158,-0.5477594 0.7986524,0.00233 1.426538,0.2499427 1.7277999,0.419343 0.072762,0.041934 0.1418398,0.087076 0.2094931,0.1334652 C 6.9792993,3.8664883 7.5732695,3.7340925 8.1983637,3.7340925 10.60923,3.7343828 12.563628,5.6881949 12.563984,8.0990603 h -3.48e-4 c 0,1.2155001 -0.497152,2.3145227 -1.298597,3.1059287 0.196724,0.02203 0.406514,0.03576 0.620759,0.03469 0.760935,3.49e-4 1.583406,-0.16756 2.200005,-0.686155 0.402059,-0.338681 0.738899,-0.8345865 0.925702,-1.5781183 0.03653,-0.2871846 0.05756,-0.579121 0.05756,-0.8762248 0,-3.7943999 -3.075933,-6.8709276 -6.870511,-6.8709276"
     id="path18"
     style="fill:#5881d8;stroke-width:0.059397" />
</svg>
