<?xml version="1.0" encoding="UTF-8" standalone="no"?>
<svg
   width="16"
   height="16"
   viewBox="0 0 53.405897 53.38276"
   fill="none"
   version="1.1"
   id="svg824"
   sodipodi:docname="babashka.svg"
   inkscape:version="1.2.2 (b0a8486541, 2022-12-01)"
   xmlns:inkscape="http://www.inkscape.org/namespaces/inkscape"
   xmlns:sodipodi="http://sodipodi.sourceforge.net/DTD/sodipodi-0.dtd"
   xmlns="http://www.w3.org/2000/svg"
   xmlns:svg="http://www.w3.org/2000/svg">
  <sodipodi:namedview
     id="namedview826"
     pagecolor="#ffffff"
     bordercolor="#666666"
     borderopacity="1.0"
     inkscape:showpageshadow="2"
     inkscape:pageopacity="0.0"
     inkscape:pagecheckerboard="0"
     inkscape:deskcolor="#d1d1d1"
     showgrid="false"
     inkscape:zoom="34.743688"
     inkscape:cx="13.901806"
     inkscape:cy="9.2534795"
     inkscape:window-width="1920"
     inkscape:window-height="1044"
     inkscape:window-x="0"
     inkscape:window-y="36"
     inkscape:window-maximized="1"
     inkscape:current-layer="svg824" />
  <path
     fill-rule="evenodd"
     clip-rule="evenodd"
     d="m 36.797373,44.005038 c 4.538005,-3.215895 7.499816,-8.509434 7.499816,-14.495007 0,-9.805428 -6.786093,-22.5676961 -17.754306,-28.150437 C 15.673306,7.2382389 8.788577,19.704603 8.788577,29.510031 c 0,5.985573 2.961811,11.279112 7.499817,14.495007 -0.162161,0.02172 -0.321154,0.04934 -0.477,0.08322 -3.447888,0.752381 -7.6540789,6.432974 -7.6540789,6.432974 H 18.573174 c 1.853154,0 3.615175,-0.695975 5.009086,-1.476768 0.67703,0.89561 1.750965,1.474789 2.960623,1.474789 1.209658,0 2.283998,-0.579179 2.960633,-1.474789 1.393911,0.780793 3.155923,1.476768 5.009076,1.476768 h 10.415859 c 0,0 -4.206191,-5.680593 -7.654079,-6.432978 -0.155836,-0.03397 -0.314839,-0.06158 -0.476999,-0.08322 z"
     fill="url(#paint0_linear)"
     id="path773"
     style="fill:url(#paint0_linear);stroke-width:0.0394541" />
  <circle
     cx="26.523149"
     cy="30.535828"
     fill="#ffffff"
     id="circle775"
     r="12.289925"
     style="stroke-width:0.0394541" />
  <path
     d="m 15.850848,25.288448 c 7.279266,0.51291 11.579757,-1.262523 14.558533,-5.661648 0,0 -5.740556,-1.933249 -9.232242,0 -3.479839,1.926694 -5.326291,5.661648 -5.326291,5.661648 z"
     fill="#b4b4b4"
     id="path777"
     style="stroke-width:0.0394541" />
  <path
     d="m 36.209118,24.203467 c -2.919595,-0.315631 -5.52356,-1.262533 -6.766366,-4.833117 0,0 2.581476,0.589249 5.188202,2.96355 2.70734,2.465876 1.578164,1.869567 1.578164,1.869567 z"
     fill="#b4b4b4"
     id="path779"
     style="stroke-width:0.0394541" />
  <circle
     cx="26.523149"
     cy="30.535828"
     stroke="#0a0000"
     stroke-width="1.57816"
     id="circle781"
     r="12.289925" />
  <path
     d="m 28.949579,25.268721 h -4.852845 l 1.183626,1.183626 v 3.550857 c 0.177542,-1.163889 2.386968,-1.203343 2.505329,0 l 0.295904,-3.550857 z"
     fill="#000000"
     id="path783"
     style="stroke-width:0.0394541" />
  <path
     d="m 11.357828,26.846885 c 0,-0.871575 0.706617,-1.578164 1.578156,-1.578164 h 11.24045 c 0.953999,0 1.689815,0.840057 1.564356,1.785854 l -0.976884,7.358165 c -0.104158,0.784429 -0.7733,1.370483 -1.564356,1.370483 H 12.935984 c -0.871539,0 -1.578156,-0.706588 -1.578156,-1.578163 z"
     fill="#000000"
     id="path785"
     style="stroke-width:0.0394541" />
  <path
     d="m 16.012613,34.049214 v -0.650989 h -0.218976 c -0.142028,0 -0.236723,-0.100614 -0.284066,-0.248561 l -0.89955,-2.710488 c -0.05919,-0.171624 -0.1302,-0.295904 -0.224885,-0.390599 -0.177552,-0.183461 -0.408356,-0.242642 -0.668746,-0.242642 h -0.284075 v 0.680584 h 0.18938 c 0.159795,0 0.284066,0.05919 0.337337,0.248561 l 0.124281,0.437941 -1.112607,2.876193 h 0.810784 l 0.668736,-1.893795 0.355094,1.142192 c 0.13611,0.443861 0.366923,0.751603 0.887713,0.751603 z"
     fill="#ffffff"
     id="path787"
     style="stroke-width:0.0394541" />
  <path
     d="m 17.302752,33.398225 v 0.650989 h 2.209426 v -0.650989 z"
     fill="#ffffff"
     id="path789"
     style="stroke-width:0.0394541" />
  <path
     d="m 27.332357,27.054686 c -0.125459,-0.945826 0.610356,-1.785965 1.564356,-1.785965 H 40.11506 c 0.871548,0 1.578164,0.706589 1.578164,1.578164 v 7.342231 c 0,0.871584 -0.706616,1.57832 -1.578164,1.57832 H 29.872013 c -0.791047,0 -1.460189,-0.586128 -1.564347,-1.370557 z"
     fill="#000000"
     id="path791"
     style="stroke-width:0.0394541" />
  <path
     d="m 33.104082,34.066971 v -0.650998 h -0.218966 c -0.142038,0 -0.236723,-0.100605 -0.284066,-0.248552 L 31.7015,30.456924 C 31.64231,30.2853 31.5713,30.16102 31.476605,30.066334 31.299063,29.882873 31.068259,29.823692 30.807859,29.823692 h -0.284066 v 0.680584 h 0.189381 c 0.159785,0 0.284066,0.05919 0.337328,0.248561 l 0.12428,0.437932 -1.112597,2.876202 h 0.810774 l 0.668746,-1.893795 0.355085,1.142192 c 0.136119,0.443861 0.366923,0.751603 0.887721,0.751603 z"
     fill="#ffffff"
     id="path793"
     style="stroke-width:0.0394541" />
  <path
     d="m 34.394231,33.415973 v 0.650998 h 2.209426 v -0.650998 z"
     fill="#ffffff"
     id="path795"
     style="stroke-width:0.0394541" />
  <defs
     id="defs822">
    <linearGradient
       id="paint0_linear"
       x1="1499"
       y1="139"
       x2="1499"
       y2="1385.52"
       gradientUnits="userSpaceOnUse"
       gradientTransform="matrix(0.03945402,0,0,0.03945402,-31.967416,-4.1245214)">
      <stop
         stop-color="#E41F26"
         id="stop817" />
      <stop
         offset="1"
         stop-color="#B70000"
         id="stop819" />
    </linearGradient>
  </defs>
</svg>
