<?xml version="1.0" encoding="UTF-8" standalone="no"?>
<svg
   width="16"
   height="16"
   viewBox="0 0 16 16"
   version="1.1"
   id="svg35"
   sodipodi:docname="status-disconnected.svg"
   inkscape:version="1.2.2 (b0a8486541, 2022-12-01)"
   inkscape:export-filename="../dev/clojure-lsp-intellij-plugin/src/main/resources/clojure-lsp/icons/status-disconnected.png"
   inkscape:export-xdpi="96"
   inkscape:export-ydpi="96"
   xmlns:inkscape="http://www.inkscape.org/namespaces/inkscape"
   xmlns:sodipodi="http://sodipodi.sourceforge.net/DTD/sodipodi-0.dtd"
   xmlns="http://www.w3.org/2000/svg"
   xmlns:svg="http://www.w3.org/2000/svg">
  <defs
     id="defs39" />
  <sodipodi:namedview
     id="namedview37"
     pagecolor="#ffffff"
     bordercolor="#666666"
     borderopacity="1.0"
     inkscape:showpageshadow="2"
     inkscape:pageopacity="0.0"
     inkscape:pagecheckerboard="0"
     inkscape:deskcolor="#d1d1d1"
     showgrid="false"
     inkscape:zoom="35.2"
     inkscape:cx="3.8778409"
     inkscape:cy="7.7982955"
     inkscape:window-width="1920"
     inkscape:window-height="1044"
     inkscape:window-x="0"
     inkscape:window-y="36"
     inkscape:window-maximized="1"
     inkscape:current-layer="svg35" />
  <path
     fill="#444444"
     d="m 7.7621286,8.019757 c -0.06857,0.1490361 -0.144843,0.3169653 -0.223206,0.4953901 -0.27848,0.6304334 -0.58635,1.3973084 -0.699004,1.8885009 -0.04059,0.174926 -0.06577,0.391834 -0.06507,0.632531 0,0.09516 0.0049,0.195218 0.0133,0.296676 a 3.6587507,3.6587507 0 0 0 2.416778,0.03638 2.1914719,2.1914719 0 0 1 -0.240697,-0.25469 C 8.4716286,10.486912 8.1973446,9.5668017 7.7628286,8.019057 Z m 0.287578,-7.05371301 c -0.130143,0 -0.258891,0.0042 -0.387635,0.0112 l -0.04899,0.0021 -0.150436,0.0119 -0.06927,0.0056 c -0.04689,0.0042 -0.09376,0.0098 -0.140644,0.015393 a 2.8813799,2.8813799 0 0 0 -0.07697,0.0091 c -0.04548,0.0056 -0.09025,0.0126 -0.135743,0.018891 l -0.07977,0.0119 -0.132243,0.02239 -0.08046,0.0147 -0.130145,0.026589 a 6.9319646,6.9319646 0 0 0 -0.208511,0.04758 l -0.07836,0.019591 -0.128745,0.034286 -0.07626,0.02169 a 6.9123728,6.9123728 0 0 0 -0.200815,0.061574 l -0.129445,0.042681 -0.06717,0.02379 a 5.0259716,5.0259716 0 0 0 -0.132242,0.04828 l -0.05948,0.02309 c -0.04547,0.018193 -0.09166,0.035684 -0.137142,0.054577 l -0.04758,0.020291 -0.146238,0.063673 -0.02239,0.0105 a 6.9067752,6.9067752 0 0 0 -0.855024,0.4652704 l -0.02029,0.0126 c -0.04688,0.030087 -0.09236,0.060874 -0.138542,0.091661 l -0.03428,0.02309 c -0.04338,0.029387 -0.08536,0.060174 -0.128045,0.090261 l -0.04128,0.029387 -0.12105,0.090962 a 3.7049311,3.7049311 0 0 0 -0.159551,0.1266478 l -0.045475,0.037084 A 3.5999755,3.5999755 0 0 0 3.528232,2.6488342 l -0.045475,0.039883 -0.1077546,0.097259 -0.044778,0.041283 a 4.7614837,4.7614837 0 0 0 -0.1049566,0.100057 l -0.042677,0.041981 -0.1028566,0.1035561 -0.040586,0.042681 c -0.033586,0.035684 -0.067869,0.07137 -0.1007575,0.1077547 A 19.388791,19.388791 0 0 0 2.801248,3.3772247 l -0.032182,0.038484 -0.1000576,0.1203489 -0.023091,0.029387 a 6.5821127,6.5821127 0 0 0 -0.12105,0.1553346 l -0.0091,0.0119 -0.093758,0.1273462 A 3.5223084,3.5223084 0 0 1 4.3266076,3.3079485 c 0.80536,0.0021 1.438591,0.2518933 1.742263,0.4226211 0.07347,0.042681 0.142738,0.088163 0.21131,0.1343433 A 4.4025356,4.4025356 0 0 1 12.454364,7.8945058 4.3871421,4.3871421 0 0 1 11.144519,11.02638 c 0.198716,0.02238 0.410028,0.03638 0.626235,0.03499 0.767575,0 1.596723,-0.168628 2.218761,-0.692007 0.405829,-0.341456 0.745184,-0.841743 0.933405,-1.5911268 0.03708,-0.2896765 0.05807,-0.5842518 0.05807,-0.8837256 0,-3.8266787 -3.101788,-6.92916491 -6.9284674,-6.92916491 z M 11.240354,12.096931 c -0.485595,-0.06087 -0.885824,-0.134343 -1.235677,-0.25749 A 4.4025356,4.4025356 0 0 1 5.1487346,4.5863109 3.2543218,3.2543218 0 0 0 4.3846586,4.4925509 C 3.0937052,4.5044509 1.7306829,5.2188433 1.163223,7.1472261 a 3.9883111,3.9883111 0 0 0 -0.0126,0.1315433 l -0.0042,0.048286 a 4.2996792,4.2996792 0 0 0 -0.007,0.097957 l -0.0063,0.090958 c -0.0028,0.045486 -0.0042,0.091658 -0.0056,0.1378433 l -0.0021,0.048986 a 5.8110392,5.8110392 0 0 0 -0.0028,0.1917176 c 0,3.8266817 3.1024866,6.9284667 6.9284666,6.9284667 h 0.0021 c 0.07348,0 0.146944,-0.0014 0.220406,-0.0034 l 0.07697,-0.0034 0.144144,-0.007 0.09166,-0.007 0.127343,-0.01043 c 0.03289,-0.0028 0.06507,-0.007 0.09796,-0.01043 a 6.9466583,6.9466583 0 0 0 0.220407,-0.02728 c 0.03848,-0.0056 0.07627,-0.01043 0.114057,-0.01679 l 0.102858,-0.0175 0.109857,-0.01959 c 0.03499,-0.0063 0.06927,-0.014 0.103558,-0.02099 l 0.106357,-0.02238 0.104257,-0.02449 c 0.03428,-0.0083 0.06927,-0.01608 0.1035578,-0.02518 l 0.104958,-0.02798 0.100056,-0.02799 0.1056576,-0.03148 0.09726,-0.03008 c 0.03569,-0.01117 0.07067,-0.02308 0.105657,-0.03569 l 0.09446,-0.03289 0.105658,-0.03918 0.09096,-0.03499 0.105658,-0.04269 0.08815,-0.03708 0.105659,-0.04618 0.08466,-0.03849 0.105657,-0.05038 0.08117,-0.04059 c 0.03569,-0.01818 0.07067,-0.03569 0.105658,-0.05457 l 0.07767,-0.04128 0.106358,-0.05807 0.07417,-0.04269 c 0.03569,-0.02099 0.07137,-0.04128 0.106357,-0.06297 l 0.06997,-0.04269 0.107058,-0.06717 0.06507,-0.04338 0.107757,-0.07277 0.06017,-0.04269 c 0.03639,-0.02589 0.07348,-0.05177 0.109158,-0.07837 l 0.05457,-0.04059 0.111258,-0.08467 0.04759,-0.03779 c 0.03848,-0.03079 0.07697,-0.06087 0.114058,-0.09235 l 0.03918,-0.03289 c 0.03989,-0.03359 0.07977,-0.06717 0.118942,-0.102157 l 0.02659,-0.02449 c 0.04269,-0.03779 0.08468,-0.07627 0.126642,-0.115458 l 0.0091,-0.0091 0.137844,-0.132943 0.05038,-0.05109 a 4.7908713,4.7908713 0 0 0 0.14274,-0.148941 l 0.06997,-0.07558 c 0.02099,-0.02379 0.04269,-0.04689 0.06297,-0.07137 l 0.06087,-0.07067 0.06647,-0.07837 0.05108,-0.06297 0.07067,-0.08815 0.02448,-0.03218 a 6.8500992,6.8500992 0 0 0 0.188919,-0.254692 v -7e-4 c -0.678012,0.169329 -1.330137,0.249795 -1.8885,0.251893 -0.209211,0 -0.405828,-0.01117 -0.58775,-0.03359 z M 9.9382064,10.7542 c 0.04269,0.02099 0.1399426,0.05597 0.2749826,0.09376 A 3.6629488,3.6629488 0 0 0 11.713354,7.8945095 3.6685465,3.6685465 0 0 0 8.0497066,4.2308614 3.6755436,3.6755436 0 0 0 6.8993946,4.4176822 c 0.743784,0.8480409 1.101333,2.0599273 1.447686,3.3851671 l 7e-4,0.00139 c 7e-4,0 0.110558,0.368044 0.299474,0.8550384 0.187521,0.4862943 0.454807,1.0880378 0.746584,1.5267533 0.191717,0.293876 0.4016288,0.505186 0.5450678,0.56746 z M 5.9442986,4.9004779 a 3.6650479,3.6650479 0 0 0 -1.558241,2.9947316 3.6629488,3.6629488 0 0 0 1.515559,2.9646445 C 6.1262216,9.9229515 6.6901826,9.0658145 7.5354256,7.3466422 A 13.15513,13.15513 0 0 0 7.3639976,6.8995308 C 7.1295966,6.3124799 6.7916396,5.6302688 6.4900676,5.3209997 A 2.4167766,2.4167766 0 0 0 5.9435996,4.9011776 Z"
     id="path33"
     style="stroke-width:0.699704;fill:#8b8b8b;fill-opacity:1" />
</svg>
