<?xml version="1.0" encoding="UTF-8" standalone="no"?>
<!-- Uploaded to: SVG Repo, www.svgrepo.com, Generator: SVG Repo Mixer Tools -->

<svg
   width="16"
   height="16"
   viewBox="0 0 0.64 0.64"
   version="1.1"
   id="svg5477"
   sodipodi:docname="clojure-script.svg"
   inkscape:version="1.2.2 (b0a8486541, 2022-12-01)"
   xmlns:inkscape="http://www.inkscape.org/namespaces/inkscape"
   xmlns:sodipodi="http://sodipodi.sourceforge.net/DTD/sodipodi-0.dtd"
   xmlns="http://www.w3.org/2000/svg"
   xmlns:svg="http://www.w3.org/2000/svg"
   xmlns:rdf="http://www.w3.org/1999/02/22-rdf-syntax-ns#"
   xmlns:cc="http://creativecommons.org/ns#"
   xmlns:dc="http://purl.org/dc/elements/1.1/">
  <defs
     id="defs5481" />
  <sodipodi:namedview
     id="namedview5479"
     pagecolor="#ffffff"
     bordercolor="#666666"
     borderopacity="1.0"
     inkscape:showpageshadow="2"
     inkscape:pageopacity="0.0"
     inkscape:pagecheckerboard="0"
     inkscape:deskcolor="#d1d1d1"
     showgrid="false"
     inkscape:zoom="23.414807"
     inkscape:cx="10.079092"
     inkscape:cy="8.4348334"
     inkscape:window-width="1920"
     inkscape:window-height="1044"
     inkscape:window-x="0"
     inkscape:window-y="36"
     inkscape:window-maximized="1"
     inkscape:current-layer="svg5477" />
  <title
     id="title5461">file_type_clojurescript</title>
  <path
     d="m 0.18331251,0.40068559 a 0.05455591,0.05455591 0 0 1 -0.042993,-0.0165184 0.06877068,0.06877068 0 0 1 -0.014773,-0.0472974 0.06939884,0.06939884 0 0 1 0.0153313,-0.0483446 0.05690565,0.05690565 0 0 1 0.0444587,-0.0169369 0.08238059,0.08238059 0 0 1 0.035409,0.007282 l -0.008051,0.0212638 a 0.08084511,0.08084511 0 0 0 -0.0276617,-0.006541 c -0.0215659,0 -0.0322682,0.014285 -0.0322682,0.0428306 a 0.05188045,0.05188045 0 0 0 0.008023,0.0315241 0.02791774,0.02791774 0 0 0 0.0236604,0.0105625 0.0686311,0.0686311 0 0 0 0.0334553,-0.008774 v 0.0230552 a 0.05118251,0.05118251 0 0 1 -0.015169,0.005931 0.08142673,0.08142673 0 0 1 -0.0194724,0.001952 z"
     style="fill:#96ca4b;stroke-width:0.0232648"
     id="path5463" />
  <path
     d="M 0.2909819,0.39845224 H 0.26450663 V 0.22324513 h 0.0264756 z"
     style="fill:#96ca4b;stroke-width:0.0232648"
     id="path5465" />
  <path
     d="m 0.33337029,0.45377587 a 0.0579293,0.0579293 0 0 1 -0.019775,-0.002839 v -0.0209382 a 0.06127943,0.06127943 0 0 0 0.015611,0.002074 q 0.0169603,0 0.0169603,-0.0191702 V 0.27382251 h 0.0264756 v 0.14082173 a 0.03915462,0.03915462 0 0 1 -0.0101205,0.0291509 0.0398293,0.0398293 0 0 1 -0.0291514,0.009981 z"
     style="fill:#5f7fbf;stroke-width:0.0232648"
     id="path5467" />
  <path
     d="m 0.34451415,0.24101943 a 0.01463355,0.01463355 0 0 1 0.003885,-0.0108646 0.01505231,0.01505231 0 0 1 0.0111442,-0.003866 0.01342378,0.01342378 0 0 1 0.014727,0.014727 0.01502905,0.01502905 0 0 1 -0.003866,0.0107013 0.01488946,0.01488946 0 0 1 -0.0108646,0.003866 0.01554087,0.01554087 0 0 1 -0.0111442,-0.003866 0.01428457,0.01428457 0 0 1 -0.003885,-0.0107013 z"
     style="fill:#5f7fbf;stroke-width:0.0232648"
     id="path5469" />
  <path
     d="m 0.51125282,0.36304318 a 0.03275681,0.03275681 0 0 1 -0.0132378,0.0279178 0.06355938,0.06355938 0 0 1 -0.0380843,0.009678 0.08977879,0.08977879 0 0 1 -0.0400155,-0.007582 v -0.0229184 a 0.09880552,0.09880552 0 0 0 0.0408995,0.0101205 c 0.0162856,0 0.0244046,-0.004908 0.0244046,-0.014727 a 0.01191157,0.01191157 0 0 0 -0.002674,-0.007882 0.03182622,0.03182622 0 0 0 -0.008933,-0.006541 0.14940641,0.14940641 0 0 0 -0.0172391,-0.007582 0.08061246,0.08061246 0 0 1 -0.0291509,-0.0166572 0.03075604,0.03075604 0 0 1 -0.007582,-0.0215669 0.0284063,0.0284063 0 0 1 0.0130051,-0.0247302 0.06081413,0.06081413 0 0 1 0.0350834,-0.008774 0.09906143,0.09906143 0 0 1 0.0415047,0.008933 l -0.008633,0.0199144 a 0.09322197,0.09322197 0 0 0 -0.0338972,-0.008333 c -0.0139594,0 -0.0209382,0.004026 -0.0209382,0.0119118 a 0.01214421,0.01214421 0 0 0 0.005518,0.009957 0.12141889,0.12141889 0 0 0 0.0238002,0.0111442 0.11776631,0.11776631 0 0 1 0.0224508,0.0108646 0.03489716,0.03489716 0 0 1 0.0104226,0.0114464 0.03284986,0.03284986 0 0 1 0.003416,0.0154711 z"
     style="fill:#5f7fbf;stroke-width:0.0232648"
     id="path5471" />
  <path
     d="m 0.29523935,0.06246229 0.004073,-3.7226e-4 V 0.02328412 l -0.004814,3.9543e-4 a 0.30051115,0.30051115 0 0 0 0,0.59902161 l 0.004814,3.9543e-4 v -0.0389682 l -0.004073,-3.4899e-4 a 0.2617055,0.2617055 0 0 1 0,-0.52131711 z"
     style="fill:#96ca4b;stroke-width:0.0232648"
     id="path5473" />
  <path
     d="M 0.53884487,0.11897241 A 0.29953403,0.29953403 0 0 0 0.3427926,0.02358684 l -0.004816,-3.9553e-4 v 0.03889882 l 0.004073,3.7225e-4 a 0.26177529,0.26177529 0 0 1 0,0.5214567 l -0.004073,3.7225e-4 v 0.0388059 L 0.3427906,0.6227018 A 0.30037156,0.30037156 0 0 0 0.53884487,0.11897241 Z"
     style="fill:#5f7fbf;stroke-width:0.0232648"
     id="path5475" />
  <metadata
     id="metadata5963">
    <rdf:RDF>
      <cc:Work
         rdf:about="">
        <dc:title>file_type_clojurescript</dc:title>
      </cc:Work>
    </rdf:RDF>
  </metadata>
</svg>
