<?xml version="1.0" encoding="UTF-8" standalone="no"?>
<svg
   version="1.1"
   width="16"
   height="16"
   id="svg2815"
   sodipodi:docname="leiningen.svg"
   inkscape:version="1.2.2 (b0a8486541, 2022-12-01)"
   xmlns:inkscape="http://www.inkscape.org/namespaces/inkscape"
   xmlns:sodipodi="http://sodipodi.sourceforge.net/DTD/sodipodi-0.dtd"
   xmlns="http://www.w3.org/2000/svg"
   xmlns:svg="http://www.w3.org/2000/svg">
  <defs
     id="defs2819" />
  <sodipodi:namedview
     id="namedview2817"
     pagecolor="#ffffff"
     bordercolor="#666666"
     borderopacity="1.0"
     inkscape:showpageshadow="2"
     inkscape:pageopacity="0.0"
     inkscape:pagecheckerboard="0"
     inkscape:deskcolor="#d1d1d1"
     showgrid="false"
     inkscape:zoom="28.924181"
     inkscape:cx="12.688345"
     inkscape:cy="9.2828903"
     inkscape:window-width="1920"
     inkscape:window-height="1044"
     inkscape:window-x="0"
     inkscape:window-y="36"
     inkscape:window-maximized="1"
     inkscape:current-layer="svg2815" />
  <path
     d="M 3.8062829,5.0229369 C 3.7452103,4.606773 3.6789907,4.1911776 3.6860198,4.0007328 3.6964866,3.6661307 3.8028932,3.1920823 3.9265365,2.6929134 4.0067183,2.4549002 4.0494403,2.1954846 4.1971189,2.1066489 4.2970245,2.010834 4.3702252,1.9102716 4.4226075,1.8060006 4.4825275,1.67241 4.5283035,1.5966781 4.69319,1.5955469 c 0.00999,0 0.085175,-0.055119 0.1052254,-0.07516 0.029,-0.045977 0.074228,-0.075841 0.1352912,-0.090197 0.064434,-0.00855 0.1617849,-0.11797 0.3006483,-0.2104537 0.1002225,-0.1002158 0.1929165,-0.172873 0.2781013,-0.2179698 0.085175,-0.045094 1.3265627,-0.47969183 1.4130439,-0.49607005 0.1077413,-0.0204055 0.1549766,0.0640686 0.23802,0.0597763 0.3035098,-0.0157003 0.5955637,-0.14889334 0.7466032,-0.14244998 0.1559945,0.00797 0.320881,0.0862027 0.4292081,0.0990442 0.5021495,0.0595362 0.5375063,-0.0570971 1.2093244,0.0212122 0.351811,0.0950851 0.2147817,0.20470564 0.4660052,0.39835861 0.16697,0.093818 0.209174,0.097334 0.390989,0.14074562 0.126726,0.030258 0.277785,0.1113519 0.428277,0.1448698 0.259184,0.042616 0.57438,-0.044335 0.548684,0.2480346 -0.03678,0.2184729 0.394581,0.186307 0.729078,0.2405186 0.09555,0.036519 0.133524,0.1627268 0.08268,0.2254866 -0.188269,0.2225493 -0.481043,0.4509724 -0.481043,0.4509724 0.17809,0.06477 0.296135,0.1559378 0.360779,0.2705834 0.05531,0.1275563 -0.04081,0.2400807 -0.171262,0.2210599 C 11.808453,2.8701476 11.68326,2.8282036 11.525422,2.783108 11.21736,2.728844 11.332227,2.82413 11.337518,3.0085937 c -0.01344,0.3807206 0.353386,0.7665681 0.450967,0.7816855 0.17108,0.013165 0.204133,0.1585007 0.240527,0.3006482 0,0.080172 0.01,0.1252709 0.03006,0.1352912 0.172866,0.037585 0.39507,-0.040744 0.435939,0.1052274 0.02007,0.080172 -0.03505,0.1954209 -0.165357,0.345745 -0.0702,0.080172 -0.107155,0.1079747 -0.127782,0.165357 -0.04321,0.1202593 0.09209,0.1202593 0.01508,0.3156802 -0.0386,0.092271 -0.125861,0.1617311 -0.278101,0.1277762 -0.04004,-0.00499 -0.0702,-0.017534 -0.09017,-0.037585 -0.04004,-0.020041 -0.0701,-0.017534 -0.09017,0.00749 -0.08489,0.1630303 -0.147832,0.3133103 -0.150329,0.4284236 0.04129,0.2975802 0.06069,0.551431 0.01508,0.676458 -0.03006,0.090197 -0.02506,0.235508 0.01498,0.4359395 0.04004,0.2004325 0.07807,0.2665158 0.180385,0.5261349 0.09772,0.2480346 0.18415,0.2630675 -0.06011,0.7065229 -0.108855,0.1976141 -0.21193,0.3211892 -0.345752,0.3908428 0.223789,0.2242767 0.49271,0.5007907 0.631362,0.4509723 0.06136,-0.022048 0.06491,-0.2190999 0.03908,-0.2692362 -0.07903,-0.1534324 -0.0677,-0.2722485 0.09619,-0.2869626 0.117757,-0.0025 0.24795,0.1849128 0.311404,0.3041945 0.168804,0.3173395 0.07336,0.7272675 -0.115981,0.9585279 -0.323195,0.488554 -0.700885,0.2968898 -1.29279,0.3607776 -0.05013,0.01002 -0.05013,0.04009 0,0.0902 0.02007,0.02004 0.03505,0.07015 0.04513,0.150324 0.01,0.08017 0.01498,0.165355 0.01498,0.255551 0,0 -0.0459,0.118841 -0.196988,0.237959 -0.105273,0.083 -0.181739,0.156103 -0.268018,0.191915 -0.116912,0.04853 -0.7526143,0.08123 -0.7526143,0.08123 -0.026791,0.0023 -0.046765,0.07888 -0.045132,0.120258 -0.016612,0.219749 -0.2756046,0.6938 -0.496071,1.127431 l 0.458496,2.11957 c 0.1476306,0.663853 0.029672,0.740147 0.1127443,1.112399 0.01306,0.04561 -0.040235,0.150202 -0.1353008,0.243023 -0.1052338,0.102719 -0.1803934,0.132783 -0.2167201,0.11274 -0.041003,-0.02262 -0.1365492,-0.100216 -0.1365492,-0.100216 -0.085175,-0.07015 -0.1778788,-0.155336 -0.2780917,-0.255551 -1.037236,-0.93201 -2.4878645,-1.999311 -4.0136527,-3.156806 -0.054735,-0.168601 -0.090265,-0.324092 -0.052622,-0.43594 0.070387,-0.20923 0.2207065,-0.440761 0.3532706,-0.676459 L 5.3395899,10.284253 C 5.277365,9.7999616 5.1970679,9.3321801 4.9938478,8.976434 4.8894002,8.7802017 4.7895138,8.5738338 4.6481057,8.4803639 4.4511177,8.3501563 4.3396409,8.1730265 4.3324197,7.9842948 4.3304992,7.9342267 4.2973702,7.8515088 4.2271943,7.7362602 L 3.430475,6.6163447 C 3.4181837,5.6274378 3.4740709,5.3644807 3.8062925,5.02291 Z M 8.2258093,11.336549 6.9781128,10.539832 C 6.3614809,9.8793925 5.7770562,9.2317387 5.2343549,8.6006501 5.1825968,8.5383963 4.9843508,8.5709876 4.9938382,8.6307159 c 0.071251,0.2370971 0.2612679,0.4606738 0.353261,0.8342991 0.041291,0.1678486 0.1979291,1.109893 0.2555544,1.578403 0.012868,0.104558 -0.00768,0.187905 -0.037546,0.248034 l -0.2705824,0.503587 c -0.073172,0.175489 9.314e-4,0.336752 0.1728758,0.488554 1.9166338,1.533304 3.3711034,2.482461 4.1414251,3.367259 L 9.8192767,15.51556 C 9.7942138,14.232795 9.3632965,13.105363 9.2179898,12.163332 9.3349688,11.954156 9.4895133,11.69503 9.57876,11.486874 Z m 0,-1.8940838 c 0.1904102,0 0.3557672,-0.040081 0.496071,-0.1202593 C 9.0450755,9.1455754 9.5712123,8.5029387 9.7440786,8.4503259 9.934316,8.4485975 9.8523193,8.3432971 9.7290985,8.269937 9.5247261,8.1496316 9.5087665,8.0116152 9.6242956,7.7881287 c 0.026023,-0.050279 0.054063,-0.1232457 0.097284,-0.164585 0.032361,0.031141 -0.069523,0.2405186 -0.033705,0.3756399 0.02996,0.1130497 0.2348031,-0.047744 0.4170704,-0.074987 0.155168,-0.021433 0.321005,0.035482 0.464305,-7.26e-4 0.250052,-0.063176 0.28732,0.035799 0.452667,0.075889 0.151136,0.034176 0.33082,0.065394 0.398365,0.037585 C 11.60131,7.9184477 11.744629,7.7888835 11.766024,7.6235533 11.713401,7.2251947 11.588145,7.3529699 11.533026,6.992192 11.515453,6.7140926 11.40775,6.6339195 11.487894,6.3758636 c 0,0 0.08354,-0.1316086 -0.01969,-0.6336131 -0.03303,-0.1608342 0.05704,-0.2589326 0.04225,-0.2983965 -0.03649,-0.022268 -0.06837,0.046659 -0.323205,0.030066 -0.125266,-0.011273 -0.206687,-0.066393 -0.180385,-0.082678 0.06011,-0.011274 0.0555,0.012877 0.08642,0.00749 0.06511,-0.011273 0.107732,0.022547 0.10899,-0.060131 9.6e-4,-0.1440613 -0.05013,-0.058874 -0.06011,-0.1127434 v -0.052613 c 0.04619,-0.1042517 -0.08777,-0.039678 -0.225489,-0.015038 -0.04302,-0.4101987 -0.09199,-0.8280824 0.01508,-1.0447519 0.196287,-0.056281 0.241151,0.1268054 0.511099,-0.2179698 -0.02823,0.1672017 -0.06203,0.3100435 -0.120263,0.4058747 -0.07701,0.082679 -0.08172,0.2010586 -0.0077,0.1352922 C 11.51409,4.2337134 11.616626,4.054616 11.593013,3.955614 11.535398,3.727622 11.334953,3.5284427 11.247262,3.3092198 11.15959,3.0899979 11.227192,2.9434312 11.111971,2.6778594 11.081722,2.6191875 11.013275,2.5583578 10.884523,2.4820804 10.607795,2.3181388 10.853603,2.3733308 10.518193,2.1667574 10.35178,2.0901285 10.270638,2.0286228 9.9816857,1.939912 9.7421581,1.8663752 9.7003483,1.7650234 9.3682131,1.7909466 c 0.1812877,0.142741 0.3286494,0.2953947 0.4660052,0.4509724 -0.033033,0.030671 -0.152355,-0.051816 -0.2958085,-0.051816 -0.1774947,0 -0.3300226,-0.025322 -0.4182323,-0.060929 C 8.7360154,2.0059904 8.3224404,1.8133466 8.2858832,1.8661082 c -0.019589,0.103158 -0.3136982,0.1264107 -0.491529,0.00653 -0.024199,-0.016334 -0.056079,-0.033763 -0.079702,-0.036576 -0.056559,0.00163 -0.048685,0.09786 -0.1156155,0.1123631 -0.06693,0.0145 -0.076053,0.020319 -0.079606,0.044095 C 7.4939837,2.1617395 7.2173228,2.0452583 7.023158,2.1216764 6.87933,2.2200034 6.7024691,2.4060396 6.6097654,2.5500999 c -0.067794,0.1054022 -0.056367,0.1929165 -0.037546,0.3081642 0.065298,0.2220595 0.031689,0.4521795 0.060112,0.7967184 L 6.2039116,4.1510512 C 5.9891972,4.3792794 5.7934383,4.5045638 5.610134,4.8049614 5.4673239,5.4062569 5.775491,5.894811 5.9558761,6.9170141 6.0836485,7.7588302 5.8281037,7.623538 5.2643823,7.6536028 v 0.4660053 c 0,0 1.3504156,1.3403895 1.5859197,1.5558536 0.7892005,0.7140393 1.6059604,1.1349473 3.1192268,1.1199143 0.6156042,-0.0075 1.0696442,-0.158822 1.0222072,-0.646394 0,0 -0.468511,0.02756 -0.533656,0.02255 C 10.027154,10.112656 10.217564,9.9460436 9.4884954,10.043754 8.9135005,10.164012 8.0566592,9.91222 7.7672844,9.7957182 7.628229,9.7055208 6.9743198,8.8186121 7.3538919,8.5104479 c 0.098561,-0.095037 0.1334091,-0.069811 0.084503,0.036164 -0.026695,0.057808 -0.097822,0.1304275 -0.1145688,0.2118682 -0.00768,0.1077327 0.3007059,0.5310006 0.4209018,0.5787476 0.161708,0.064232 0.309377,0.1003685 0.481043,0.1052274 z M 7.5042496,4.7373206 c 0.083063,-0.014481 0.070483,-0.104779 0.082679,-0.1277753 0.032361,-0.026158 0.095258,0.035568 0.067698,-0.037585 V 4.4517014 c 0,-0.030066 0.0048,-0.045094 0.01498,-0.045094 0.018245,0.00192 0.019685,0.029758 0.02804,0.041282 0.038987,0.053294 0.057712,0.058384 0.054639,0.011341 C 7.7404739,4.354787 7.6711431,4.2906953 7.6770967,4.248776 c 0.1392283,0.024919 0.1947122,0.1394934 0.2856105,0.2330027 0.055407,-0.1404479 0.069715,-0.2749949 0.150329,-0.3758108 0.067987,-0.098725 0.2861291,-0.071117 0.4103773,-0.087682 0.1656643,-0.088354 0.1325353,0.027608 0.2961446,0.035069 0.1152506,-0.032303 -0.1249588,-0.2311023 0.2029417,-0.067641 0.3071396,0.1513035 0.2878095,0.049146 0.4660052,0.1428072 0.165357,0.1365453 0.1340333,0.299396 0.2179698,0.2931322 0.074132,-0.032457 -0.00672,-0.2330957 0.097707,-0.2405186 0.036202,0.017544 0.026503,0.058461 0.01498,0.1052274 -0.030056,0.070147 -0.04254,0.1352912 -0.037546,0.1954209 0.0048,0.060132 0.095162,0.6438879 0.090169,0.6990069 -0.0048,0.055119 -0.022566,0.1227646 -0.052622,0.2029369 -0.050126,0.1002167 -0.082679,0.1553357 -0.097707,0.165357 -0.015076,0.010025 -0.052622,-0.00499 -0.1127443,-0.045094 -0.2453179,-0.061111 -0.4267593,-0.034905 -0.5486837,-0.052613 -0.075669,-0.010515 0.1723285,-0.00653 0.2254886,-0.082679 0.01498,-0.030066 -0.017573,-0.085185 -0.097707,-0.1653561 -0.1358002,-0.1320542 -0.244473,-0.1855523 -0.2705825,0 -0.00999,0.1202593 -0.020069,0.1954209 -0.030056,0.2254857 -0.00288,0.01449 -0.0145,0.033263 -0.032553,0.040091 -0.023142,0.00874 -0.070675,0.0073 -0.072692,-0.010025 6.337e-4,-0.012531 0.013348,-0.029845 0.030056,-0.045094 0.036298,-0.033196 0.063377,-0.1640798 0.030056,-0.1879049 -0.074132,-0.012493 -0.1448266,0.04253 -0.165357,-0.022547 0,-0.040091 -0.022566,-0.052613 -0.067602,-0.037585 -0.1152506,0.041339 -0.070195,0.1202603 -0.1805387,0.1942773 -0.02247,0.015095 -0.062513,0.012416 -0.082486,0.046246 -0.012675,0.02054 -0.00576,0.054245 0.00192,0.073345 0.046573,0.1281296 -0.063281,0.1114095 -0.076821,-0.03577 -0.02343,-0.055906 -0.035914,-0.088037 -0.056655,-0.083965 -0.056367,0.011033 -0.1114768,0.090543 -0.1086632,0.1215461 0,0.025053 0.025063,0.042588 0.075189,0.052613 C 8.23912,5.5334951 8.139253,5.5646969 8.13061,5.5648699 8.099209,5.5655085 8.03251,5.5813669 7.9856393,5.6016959 7.8257164,5.6706726 7.747964,5.7934449 7.5496988,5.8196667 7.4069367,5.8139052 7.767054,5.7197842 7.7376028,5.6768595 7.6579011,5.6365766 7.4956073,5.7607096 7.2791163,5.6994065 7.2009511,5.6529394 7.1764068,5.6665847 7.1682254,5.7443371 7.1624638,5.7998402 7.0498827,5.779838 7.0249928,5.7484662 6.9104048,5.603873 6.8626606,5.8957886 6.8131111,5.7896422 6.8509454,5.6707571 6.9348722,5.6611314 6.9277279,5.5641565 c -0.0048,-0.068169 -0.034473,-0.058096 -0.00192,-0.1503241 0.034954,-0.099019 0.1181889,0.054034 0.202932,-0.3156811 0.046285,-0.203996 0.095354,-0.3579509 0.165357,-0.1352913 0.020069,0.080172 0.042636,0.1152487 0.067602,0.1052265 0.068083,-0.044566 0.00768,-0.1577287 0.1428005,-0.3307131 z m 0.6464,1.0071721 c -0.00999,-0.010025 0,-0.017534 0.030056,-0.022547 0.030056,-0.00499 0.080182,-0.0025 0.1503289,0.00749 0.1703696,0.010025 0.2630636,0.020041 0.2781013,0.030066 0.01498,0.010025 -0.042636,0.015028 -0.1728758,0.015028 -0.060112,0 -0.1177569,-0.0025 -0.1728759,-0.00749 -0.055119,-0.00499 -0.092665,-0.012531 -0.1127345,-0.022547 z M 9.1728479,5.6392653 C 9.0902654,5.6394093 9.3866597,5.509389 9.458468,5.526522 9.5116665,5.5386213 9.2404983,5.6394218 9.1728479,5.6392653 Z M 10.074792,4.5268668 c -0.03505,0.1377975 -0.06511,0.1277753 -0.07221,-0.025553 0.0048,-0.3502601 -0.074228,-0.3947817 -0.055503,-0.4404546 0.0048,0 0.02756,0.025053 0.067602,0.07516 0.124623,0.119299 0.103046,0.2539507 0.06011,0.3908427 z m 0.72156,5.3816024 v 0 0 c 0.303817,-0.1092413 0.223616,-0.2999434 -0.05262,-0.2029369 -0.201424,0.06161 -0.229934,0.1899378 -0.465198,0.2309293 l -0.188711,0.07723 c 0.160201,-0.01842 0.413278,-0.03089 0.706522,-0.1052278 z M 5.0775634,5.5384782 C 4.9977657,5.3340433 4.8074707,5.2149671 4.6105115,5.1056144 4.2175725,4.8874507 4.0848355,4.9494366 3.9941869,5.0605206 3.5319362,5.4851866 3.6033413,5.8083827 3.5807943,6.5412129 4.0505542,7.2289454 4.4645613,7.760767 4.4677014,7.909162 4.4753835,8.1910208 4.71977,8.3888894 4.858547,8.4052321 4.959288,8.3593316 5.0714753,8.2160222 5.1441671,8.1346486 v -0.49607 C 5.0915448,6.9470885 5.3170334,6.4209536 5.077525,5.5384811 Z M 4.8510281,7.3304115 c 0.043788,0.1085441 0.031977,0.1832073 -0.00288,0.2179707 -0.01642,0.016392 -0.028904,0.014596 -0.034761,-0.030066 C 4.780833,7.3404328 4.5027125,7.4431567 4.272221,6.8719222 4.0880716,6.3119649 4.1895425,6.2029801 4.1745048,5.8872989 c -0.0096,-0.095652 -0.1332267,-0.043798 -0.1790984,0.043932 -0.047245,0.090322 0,0.2971212 -0.076437,0.2416795 C 3.7940108,6.0169774 3.8441652,5.8075262 3.9339497,5.6467765 4.2345979,5.210836 4.9185729,5.6768423 4.873479,6.7215932 4.6987403,6.7766066 4.6057197,6.8012085 4.5993724,6.8731014 4.5907301,6.9705679 4.7558566,7.065532 4.8509321,7.3304057 Z M 10.754417,5.1057268 c 9.6e-4,-0.027473 -0.136424,-0.056339 -0.308685,-0.026542 -0.138288,0.027473 -0.15225,0.06984 -9.32e-4,0.077752 0.15224,0.00787 0.310539,-0.024679 0.309608,-0.051211 z"
     id="path2813"
     style="stroke-width:0.0300082" />
</svg>
